<?xml version="1.0" encoding="utf-8"?>
<svg xmlns="http://www.w3.org/2000/svg" viewBox="0 0 200 200">
<style>
	.a{fill:#E84A31;}
	.b{fill:#1C2C39;}
</style>
<g>
	<path class="a" d="M98.8,126.4c-15.1-4.6-29-11.3-42.7-18.4C43,101.2,30.4,93.6,19.5,83.4C13,77.4,7.4,70.7,5,62.1
		C2.3,52.2,5.3,38,12.7,31.7c10.3-8.8,23.7,1.8,27.3,5.1C50.7,46.2,58.9,58,66.9,70c11.6,17.5,21.6,36.8,31.2,54.8
		C98.2,125.1,98.4,125.5,98.8,126.4z"/>
	<path class="a" d="M53.2,131.3c-11.1-3.2-22.2-6.1-33.9-4.7c-5.7,0.7-10.9,2.6-13.6,8.2c-4.2,8.7-0.7,18.6,8,22.7
		c2.5,1.2,5.3,2,8,2.6c9.7,1.9,19.3,1.3,29,0.1c16.3-1.9,32.6-5.8,48.2-10.5C84.8,143.1,68.3,135.6,53.2,131.3z"/>
</g>
<path class="b" d="M170.3,146.5c-6.8,0-10.1-3.9-10.1-12.2V81.4h30.3V59.5h-30.3v-29h-30.7v29h-10.1c-6,0-10.9,4.9-10.9,10.9
	c0,6,4.9,10.9,10.9,10.9h10.1v53.6c0,24.9,10.9,36.3,34.4,36.3c12.2,0,23.9-4.5,32.6-11.3l-11.1-18.5
	C180.8,144.4,175.6,146.5,170.3,146.5z"/>
</svg>
